HIERARCHY
ROOT hips_JNT
{
  OFFSET 0 0 0
  CHANNELS 6 Xposition Yposition Zposition Zrotation Xrotation Yrotation
  JOINT spine_JNT
  {
    OFFSET 0 4.130373 -0.008512
    CHANNELS 6 Xposition Yposition Zposition Zrotation Xrotation Yrotation
    JOINT spine1_JNT
    {
      OFFSET 0 10.693992 -0.005568
      CHANNELS 6 Xposition Yposition Zposition Zrotation Xrotation Yrotation
      JOINT spine2_JNT
      {
        OFFSET 0 10.153212 -0.012624
        CHANNELS 6 Xposition Yposition Zposition Zrotation Xrotation Yrotation
        JOINT neck_JNT
        {
          OFFSET 0 17.065638 0.263754
          CHANNELS 6 Xposition Yposition Zposition Zrotation Xrotation Yrotation
          JOINT head_JNT
          {
            OFFSET 0 8.137577 0.007754
            CHANNELS 6 Xposition Yposition Zposition Zrotation Xrotation Yrotation
            JOINT r_eye_LOC
            {
              OFFSET -5.100100 12.306628 9.664178
              CHANNELS 6 Xposition Yposition Zposition Zrotation Xrotation Yrotation
              End Site
              {
                OFFSET 0 0 0
              }
            }
            JOINT l_eye_LOC
            {
              OFFSET 5.100100 12.306628 9.664178
              CHANNELS 6 Xposition Yposition Zposition Zrotation Xrotation Yrotation
              End Site
              {
                OFFSET 0 0 0
              }
            }
          }
        }
        JOINT r_shoulder_JNT
        {
          OFFSET -2.886765 12.539096 -0.534970
          CHANNELS 6 Xposition Yposition Zposition Zrotation Xrotation Yrotation
          JOINT r_arm_JNT
          {
            OFFSET -10.265322 -0.000050 -0.000020
            CHANNELS 6 Xposition Yposition Zposition Zrotation Xrotation Yrotation
            JOINT r_forearm_JNT
            {
              OFFSET -25.572863 0 -0.000009
              CHANNELS 6 Xposition Yposition Zposition Zrotation Xrotation Yrotation
              JOINT r_hand_JNT
              {
                OFFSET -19.807005 -0.346000 -0.000001
                CHANNELS 6 Xposition Yposition Zposition Zrotation Xrotation Yrotation
                JOINT r_handThumb1_JNT
                {
                  OFFSET -1.817488 -1.260972 3.61709
                  CHANNELS 6 Xposition Yposition Zposition Zrotation Xrotation Yrotation
                  JOINT r_handThumb2_JNT
                  {
                    OFFSET -2.639243 -0.023618 -0.053143
                    CHANNELS 6 Xposition Yposition Zposition Zrotation Xrotation Yrotation
                    JOINT r_handThumb3_JNT
                    {
                      OFFSET -2.698978 -0.823875 0.000033
                      CHANNELS 6 Xposition Yposition Zposition Zrotation Xrotation Yrotation
                      End Site
                      {
                        OFFSET -3.8753 -0.611784 -0.000028
                      }
                    }
                  }
                }
                JOINT r_handIndex1_JNT
                {
                  OFFSET -8.25189 -0.108337 3.7491
                  CHANNELS 6 Xposition Yposition Zposition Zrotation Xrotation Yrotation
                  JOINT r_handIndex2_JNT
                  {
                    OFFSET -3.89614 0.2885 -0.000463
                    CHANNELS 6 Xposition Yposition Zposition Zrotation Xrotation Yrotation
                    JOINT r_handIndex3_JNT
                    {
                      OFFSET -2.318387 0.159236 -0.000487
                      CHANNELS 6 Xposition Yposition Zposition Zrotation Xrotation Yrotation
                      End Site
                      {
                        OFFSET -2.565999 -0.000006 -0.000002
                      }
                    }
                  }
                }
                JOINT r_handMiddle1_JNT
                {
                  OFFSET -9.047189 0.040404 1.280809
                  CHANNELS 6 Xposition Yposition Zposition Zrotation Xrotation Yrotation
                  JOINT r_handMiddle2_JNT
                  {
                    OFFSET -3.918013 0.058125 -0.000245
                    CHANNELS 6 Xposition Yposition Zposition Zrotation Xrotation Yrotation
                    JOINT r_handMiddle3_JNT
                    {
                      OFFSET -2.517173 0.020933 -0.000344
                      CHANNELS 6 Xposition Yposition Zposition Zrotation Xrotation Yrotation
                      End Site
                      {
                        OFFSET -3.280997 0.000054 0.000001
                      }
                    }
                  }
                }
                JOINT r_handRing1_JNT
                {
                  OFFSET -8.770376 -0.316066 -1.40674
                  CHANNELS 6 Xposition Yposition Zposition Zrotation Xrotation Yrotation
                  JOINT r_handRing2_JNT
                  {
                    OFFSET -3.670816 0.003664 0.000012
                    CHANNELS 6 Xposition Yposition Zposition Zrotation Xrotation Yrotation
                    JOINT r_handRing3_JNT
                    {
                      OFFSET -2.391655 0.005686 -0.000005
                      CHANNELS 6 Xposition Yposition Zposition Zrotation Xrotation Yrotation
                      End Site
                      {
                        OFFSET -2.882462 0.000030 0.000007
                      }
                    }
                  }
                }
                JOINT r_handPinky1_JNT
                {
                  OFFSET -7.380626 -1.009364 -3.361094
                  CHANNELS 6 Xposition Yposition Zposition Zrotation Xrotation Yrotation
                  JOINT r_handPinky2_JNT
                  {
                    OFFSET -2.923373 0.065774 -0.000015
                    CHANNELS 6 Xposition Yposition Zposition Zrotation Xrotation Yrotation
                    JOINT r_handPinky3_JNT
                    {
                      OFFSET -1.903112 -0.013694 0.000004
                      CHANNELS 6 Xposition Yposition Zposition Zrotation Xrotation Yrotation
                      End Site
                      {
                        OFFSET -2.825637 0.000063 0.00002
                      }
                    }
                  }
                }
              }
            }
          }
        }
        JOINT l_shoulder_JNT
        {
          OFFSET 2.886657 12.539132 -0.534974
          CHANNELS 6 Xposition Yposition Zposition Zrotation Xrotation Yrotation
          JOINT l_arm_JNT
          {
            OFFSET 10.265323 0.000035 0.000019
            CHANNELS 6 Xposition Yposition Zposition Zrotation Xrotation Yrotation
            JOINT l_forearm_JNT
            {
              OFFSET 25.572872 0.000003 0.000003
              CHANNELS 6 Xposition Yposition Zposition Zrotation Xrotation Yrotation
              JOINT l_hand_JNT
              {
                OFFSET 19.806792 -0.345714 0.000008
                CHANNELS 6 Xposition Yposition Zposition Zrotation Xrotation Yrotation
                JOINT l_handThumb1_JNT
                {
                  OFFSET 1.812944 -1.252033 3.615281
                  CHANNELS 6 Xposition Yposition Zposition Zrotation Xrotation Yrotation
                  JOINT l_handThumb2_JNT
                  {
                    OFFSET 2.639235 -0.023623 -0.053106
                    CHANNELS 6 Xposition Yposition Zposition Zrotation Xrotation Yrotation
                    JOINT l_handThumb3_JNT
                    {
                      OFFSET 2.817296 0.161941 -0.000019
                      CHANNELS 6 Xposition Yposition Zposition Zrotation Xrotation Yrotation
                      End Site
                      {
                        OFFSET 3.923259 0.000003 -0.000017
                      }
                    }
                  }
                }
                JOINT l_handIndex1_JNT
                {
                  OFFSET 8.246994 -0.097605 3.748598
                  CHANNELS 6 Xposition Yposition Zposition Zrotation Xrotation Yrotation
                  JOINT l_handIndex2_JNT
                  {
                    OFFSET 3.896263 0.286875 -0.000004
                    CHANNELS 6 Xposition Yposition Zposition Zrotation Xrotation Yrotation
                    JOINT l_handIndex3_JNT
                    {
                      OFFSET 2.318424 0.158303 -0.000001
                      CHANNELS 6 Xposition Yposition Zposition Zrotation Xrotation Yrotation
                      End Site
                      {
                        OFFSET 2.566022 -0.000023 0.000009
                      }
                    }
                  }
                }
                JOINT l_handMiddle1_JNT
                {
                  OFFSET 9.042166 0.05456 1.280483
                  CHANNELS 6 Xposition Yposition Zposition Zrotation Xrotation Yrotation
                  JOINT l_handMiddle2_JNT
                  {
                    OFFSET 3.918027 0.055923 -0.000003
                    CHANNELS 6 Xposition Yposition Zposition Zrotation Xrotation Yrotation
                    JOINT l_handMiddle3_JNT
                    {
                      OFFSET 2.517179 0.019623 -0.000001
                      CHANNELS 6 Xposition Yposition Zposition Zrotation Xrotation Yrotation
                      End Site
                      {
                        OFFSET 3.281309 0 0.000006
                      }
                    }
                  }
                }
                JOINT l_handRing1_JNT
                {
                  OFFSET 8.765368 -0.298586 -1.407511
                  CHANNELS 6 Xposition Yposition Zposition Zrotation Xrotation Yrotation
                  JOINT l_handRing2_JNT
                  {
                    OFFSET 3.670795 0.003694 0.000002
                    CHANNELS 6 Xposition Yposition Zposition Zrotation Xrotation Yrotation
                    JOINT l_handRing3_JNT
                    {
                      OFFSET 2.391658 0.005747 0.000001
                      CHANNELS 6 Xposition Yposition Zposition Zrotation Xrotation Yrotation
                      End Site
                      {
                        OFFSET 2.882434 0.000006 0
                      }
                    }
                  }
                }
                JOINT l_handPinky1_JNT
                {
                  OFFSET 7.375719 -0.989721 -3.362722
                  CHANNELS 6 Xposition Yposition Zposition Zrotation Xrotation Yrotation
                  JOINT l_handPinky2_JNT
                  {
                    OFFSET 2.923453 0.065764 0.000007
                    CHANNELS 6 Xposition Yposition Zposition Zrotation Xrotation Yrotation
                    JOINT l_handPinky3_JNT
                    {
                      OFFSET 1.903052 -0.013621 0.000002
                      CHANNELS 6 Xposition Yposition Zposition Zrotation Xrotation Yrotation
                      End Site
                      {
                        OFFSET 2.8257 -0.000007 0.000006
                      }
                    }
                  }
                }
              }
            }
          }
        }
      }
    }
  }
}
MOTION
Frames: 3
Frame Time: 0.033333335
 0 0 0 -0 -3.9980717 0 0 4.130373150110245 -0.008511960913892835 -0 2.399227 0 0 10.693991929292679 -0.005568470805883408 -1.9430048 -2.4058726 9.770301 0 10.153211653232574 -0.012623937800526619 -0 -6.511725 0 0 17.065638303756714 0.2637537196278572 -0 24.405434 0 0 8.137577027082443 0.007754378020763397 4.9399443 -9.951244 -1.70959 -5.09990006685257 12.30660229921341 9.664176404476166 0.0  0 0 5.100099742412567 12.306628376245499 9.664177894592285 0.0  0 0 -2.8867654502391815 12.539096176624298 -0.5349699407815933 -0 5.6046824 0 -10.265322029590607 -5.0105154514312744e-05 -2.0209699869155884e-05 53.261406 -1.1433668 64.881645 -25.572863221168518 0 -9.266659617424011e-06 -18.685575 -1.3373784 46.56888 -19.807004928588867 -0.3460004925727844 -1.1175870895385742e-06 38.908165 17.597702 -5.4232078 -1.8174875527620316 -1.2609715573489666 3.6170899868011475 -62.792305 51.980957 74.0282 -2.639242820441723 -0.02361796796321869 -0.05314350128173828 9.919337 -0.19880632 0.016356595 -2.6989782229065895 -0.8238755166530609 3.3155083656311035e-05 25.507294 -0.49728557 0.11022133 -8.251890540122986 -0.10833702981472015 3.7491004914045334 11.009433 6.0012226 -10.576347 -3.896140307188034 0.28849951922893524 -0.0004634261131286621 -7.0866494 0.00084011327 2.0917454e-05 -2.318386733531952 0.15923604369163513 -0.0004872214049100876 -7.0866494 0.00084011327 2.0917454e-05 -9.047189354896545 0.04040375351905823 1.280809286981821 7.2362843 5.087077 -1.3135651 -3.9180129766464233 0.05812495946884155 -0.00024461187422275543 -0 0 0 -2.5171734392642975 0.02093277871608734 -0.00034389086067676544 -5.669254 0.00035516985 1.4941039e-05 -8.770376443862915 -0.31606629490852356 -1.4067398384213448 6.35024 2.6281338 7.226136 -3.670816123485565 0.0036638230085372925 1.2177042663097382e-05 -0 0 -0 -2.391655370593071 0.005685538053512573 -5.3318217396736145e-06 -5.6692533 -2.7320757e-05 -1.0672171e-06 -7.380625605583191 -1.0093636810779572 -3.361094370484352 10.664718 -9.77577 7.911778 -2.923373319208622 0.0657740980386734 -1.4621764421463013e-05 -0 0 0 -1.9031122326850891 -0.013693980872631073 3.91155481338501e-06 -0 0 0 2.8866566717624664 12.539131939411163 -0.5349736660718918 -0 5.555662 0 10.265323519706726 3.455206751823425e-05 1.9371509552001953e-05 -79.78244 -6.8216105 18.677023 25.572872161865234 2.9802322387695312e-06 2.8870999813079834e-06 30.104076 -23.080856 -95.54286 19.806791841983795 -0.34571439027786255 7.82310962677002e-06 -85.72135 -19.812876 31.305128 1.8129440024495125 -1.2520326301455498 3.6152806133031845 70.57654 53.158688 -80.28401 2.639234811067581 -0.023623276501893997 -0.053105875849723816 -31.175955 -0.59751177 -0.16381697 2.817295677959919 0.16194097697734833 -1.8812716007232666e-05 -7.0852294 -0.14223869 -0.008167412 8.246994018554688 -0.09760484099388123 3.748597949743271 -3.7799447 6.0233526 10.397679 3.8962632417678833 0.28687529265880585 -3.725290298461914e-06 7.0866494 6.8301892e-06 0 2.3184238001704216 0.1583034172654152 -1.3969838619232178e-06 7.0866494 6.8301892e-06 0 9.0421661734581 0.0545598566532135 1.280482579022646 0.07599647 -4.240974 0.9991028 3.9180271327495575 0.05592331290245056 -2.561137080192566e-06 -2.834623 0 0 2.51717921346426 0.019623152911663055 -8.847564458847046e-07 5.669254 0 -4.2688683e-07 8.765368163585663 -0.2985857427120209 -1.4075106009840965 0.98482794 2.2794049 -7.0483103 3.670794889330864 0.003693997859954834 2.2584572434425354e-06 -0 0 0 2.39165760576725 0.005747005343437195 9.080395102500916e-07 5.669254 -1.36603785e-05 4.2688683e-07 7.375718653202057 -0.9897205978631973 -3.3627215772867203 -3.6352816 -9.593287 -8.082085 2.923453226685524 0.06576422601938248 7.264316082000732e-06 -0 0 0 1.9030522555112839 -0.01362096518278122 2.468004822731018e-06 -0 0 0
 0 0 0 -0 -3.9980717 0 0 4.130373150110245 -0.008511960913892835 -0 2.399227 0 0 10.693991929292679 -0.005568470805883408 -1.923923 -2.402608 9.682944 0 10.153211653232574 -0.012623937800526619 -0 -6.511725 0 0 17.065638303756714 0.2637537196278572 -0 24.405434 0 0 8.137577027082443 0.007754378020763397 4.548639 -9.96248 -1.5602695 -5.09990006685257 12.30660229921341 9.664176404476166 0.0  0 0 5.100099742412567 12.306628376245499 9.664177894592285 0.0  0 0 -2.8867654502391815 12.539096176624298 -0.5349699407815933 -0 5.6046824 0 -10.265322029590607 -5.0105154514312744e-05 -2.0209699869155884e-05 53.035484 0.49996302 63.17531 -25.572863221168518 0 -9.266659617424011e-06 -18.596605 0.12220575 47.077496 -19.807004928588867 -0.3460004925727844 -1.1175870895385742e-06 40.460606 16.50871 -7.1322017 -1.8174875527620316 -1.2609715573489666 3.6170899868011475 -62.792305 51.980957 74.0282 -2.639242820441723 -0.02361796796321869 -0.05314350128173828 9.919337 -0.19880632 0.016356595 -2.6989782229065895 -0.8238755166530609 3.3155083656311035e-05 25.507294 -0.49728557 0.11022133 -8.251890540122986 -0.10833702981472015 3.7491004914045334 15.549562 5.828037 -10.559856 -3.896140307188034 0.28849951922893524 -0.0004634261131286621 -7.0866494 0.00084011327 2.0917454e-05 -2.318386733531952 0.15923604369163513 -0.0004872214049100876 -7.0866494 0.00084011327 2.0917454e-05 -9.047189354896545 0.04040375351905823 1.280809286981821 11.808831 5.086797 -1.3135154 -3.9180129766464233 0.05812495946884155 -0.00024461187422275543 -0 0 0 -2.5171734392642975 0.02093277871608734 -0.00034389086067676544 -5.669254 0.00035516985 1.4941039e-05 -8.770376443862915 -0.31606629490852356 -1.4067398384213448 10.900599 2.8028638 7.227009 -3.670816123485565 0.0036638230085372925 1.2177042663097382e-05 -0 0 -0 -2.391655370593071 0.005685538053512573 -5.3318217396736145e-06 -5.6692533 -2.7320757e-05 -1.0672171e-06 -7.380625605583191 -1.0093636810779572 -3.361094370484352 15.267573 -9.767655 8.090314 -2.923373319208622 0.0657740980386734 -1.4621764421463013e-05 -0 0 0 -1.9031122326850891 -0.013693980872631073 3.91155481338501e-06 -0 0 0 2.8866566717624664 12.539131939411163 -0.5349736660718918 -0 5.555662 0 10.265323519706726 3.455206751823425e-05 1.9371509552001953e-05 -79.71008 -6.838338 15.843468 25.572872161865234 2.9802322387695312e-06 2.8870999813079834e-06 30.394424 -25.12054 -97.10969 19.806791841983795 -0.34571439027786255 7.82310962677002e-06 -83.649895 -17.609198 31.357119 1.8129440024495125 -1.2520326301455498 3.6152806133031845 70.58354 53.15989 -80.29098 2.639234811067581 -0.023623276501893997 -0.053105875849723816 -31.175955 -0.59751177 -0.16381697 2.817295677959919 0.16194097697734833 -1.8812716007232666e-05 -7.0852294 -0.14223869 -0.008167412 8.246994018554688 -0.09760484099388123 3.748597949743271 -3.9558082 6.0233526 10.397679 3.8962632417678833 0.28687529265880585 -3.725290298461914e-06 7.0866494 6.8301892e-06 0 2.3184238001704216 0.1583034172654152 -1.3969838619232178e-06 7.0866494 6.8301892e-06 0 9.0421661734581 0.0545598566532135 1.280482579022646 -0.011935329 -4.2409806 0.9991028 3.9180271327495575 0.05592331290245056 -2.561137080192566e-06 -2.834623 0 0 2.51717921346426 0.019623152911663055 -8.847564458847046e-07 5.669254 0 -4.2688683e-07 8.765368163585663 -0.2985857427120209 -1.4075106009840965 0.808964 2.279398 -7.0483103 3.670794889330864 0.003693997859954834 2.2584572434425354e-06 -0 0 0 2.39165760576725 0.005747005343437195 9.080395102500916e-07 5.669254 -1.36603785e-05 4.2688683e-07 7.375718653202057 -0.9897205978631973 -3.3627215772867203 -3.7232275 -9.593287 -8.082086 2.923453226685524 0.06576422601938248 7.264316082000732e-06 -0 0 0 1.9030522555112839 -0.01362096518278122 2.468004822731018e-06 -0 0 0
 0 0 0 -0 -3.9980717 0 0 4.130373150110245 -0.008511960913892835 -0 2.399227 0 0 10.693991929292679 -0.005568470805883408 -1.9052036 -2.3990903 9.578035 0 10.153211653232574 -0.012623937800526619 -0 -6.511725 0 0 17.065638303756714 0.2637537196278572 -0 24.405434 0 0 8.137577027082443 0.007754378020763397 4.072605 -9.975779 -1.3762182 -5.09990006685257 12.30660229921341 9.664176404476166 0.0  0 0 5.100099742412567 12.306628376245499 9.664177894592285 0.0  0 0 -2.8867654502391815 12.539096176624298 -0.5349699407815933 -0 5.6046824 0 -10.265322029590607 -5.0105154514312744e-05 -2.0209699869155884e-05 53.04208 2.2644947 61.00596 -25.572863221168518 0 -9.266659617424011e-06 -18.643923 1.5564021 47.808353 -19.807004928588867 -0.3460004925727844 -1.1175870895385742e-06 42.45998 15.114628 -9.36721 -1.8174875527620316 -1.2609715573489666 3.6170899868011475 -62.792305 51.980957 74.0282 -2.639242820441723 -0.02361796796321869 -0.05314350128173828 9.919337 -0.19880632 0.016356595 -2.6989782229065895 -0.8238755166530609 3.3155083656311035e-05 25.507294 -0.49728557 0.11022133 -8.251890540122986 -0.10833702981472015 3.7491004914045334 20.21001 5.827511 -10.559664 -3.896140307188034 0.28849951922893524 -0.0004634261131286621 -7.0866494 0.00084011327 2.0917454e-05 -2.318386733531952 0.15923604369163513 -0.0004872214049100876 -7.0866494 0.00084011327 2.0917454e-05 -9.047189354896545 0.04040375351905823 1.280809286981821 16.385433 5.262572 -1.3164243 -3.9180129766464233 0.05812495946884155 -0.00024461187422275543 -0 0 0 -2.5171734392642975 0.02093277871608734 -0.00034389086067676544 -5.669254 0.00035516985 1.4941039e-05 -8.770376443862915 -0.31606629490852356 -1.4067398384213448 15.56108 2.8028774 7.2270045 -3.670816123485565 0.0036638230085372925 1.2177042663097382e-05 -0 0 -0 -2.391655370593071 0.005685538053512573 -5.3318217396736145e-06 -5.6692533 -2.7320757e-05 -1.0672171e-06 -7.380625605583191 -1.0093636810779572 -3.361094370484352 19.928043 -9.767676 8.090321 -2.923373319208622 0.0657740980386734 -1.4621764421463013e-05 -0 0 0 -1.9031122326850891 -0.013693980872631073 3.91155481338501e-06 -0 0 0 2.8866566717624664 12.539131939411163 -0.5349736660718918 -0 5.555662 0 10.265323519706726 3.455206751823425e-05 1.9371509552001953e-05 -79.61225 -6.6983666 12.205132 25.572872161865234 2.9802322387695312e-06 2.8870999813079834e-06 30.68114 -27.314398 -98.78611 19.806791841983795 -0.34571439027786255 7.82310962677002e-06 -81.158394 -14.911949 31.269768 1.8129440024495125 -1.2520326301455498 3.6152806133031845 70.58152 53.159985 -80.29419 2.639234811067581 -0.023623276501893997 -0.053105875849723816 -31.175955 -0.59751177 -0.16381697 2.817295677959919 0.16194097697734833 -1.8812716007232666e-05 -7.0852294 -0.14223869 -0.008167412 8.246994018554688 -0.09760484099388123 3.748597949743271 -3.9558082 6.0233526 10.397679 3.8962632417678833 0.28687529265880585 -3.725290298461914e-06 7.0866494 6.8301892e-06 0 2.3184238001704216 0.1583034172654152 -1.3969838619232178e-06 7.0866494 6.8301892e-06 0 9.0421661734581 0.0545598566532135 1.280482579022646 -0.09986724 -4.240974 0.9991028 3.9180271327495575 0.05592331290245056 -2.561137080192566e-06 -2.834623 0 0 2.51717921346426 0.019623152911663055 -8.847564458847046e-07 5.669254 0 -4.2688683e-07 8.765368163585663 -0.2985857427120209 -1.4075106009840965 0.808964 2.279398 -7.0483103 3.670794889330864 0.003693997859954834 2.2584572434425354e-06 -0 0 0 2.39165760576725 0.005747005343437195 9.080395102500916e-07 5.669254 -1.36603785e-05 4.2688683e-07 7.375718653202057 -0.9897205978631973 -3.3627215772867203 -3.8111594 -9.593294 -8.082084 2.923453226685524 0.06576422601938248 7.264316082000732e-06 -0 0 0 1.9030522555112839 -0.01362096518278122 2.468004822731018e-06 -0 0 0
